<svg xmlns="http://www.w3.org/2000/svg" viewBox="0 0 301.2438 201.9292">
  <path d="M288.212 42.288h-93.04a5.63 5.63 0 0 0-5.63 5.63v142.14a5.63 5.63 0 0 0 5.63 5.63h93.04a5.63 5.63 0 0 0 5.63-5.63V47.918a5.642 5.642 0 0 0-5.63-5.63zm-89.28 123.61a1.42 1.42 0 1 1 1.42-1.42 1.42 1.42 0 0 1-1.42 1.42zm0-45.5a1.42 1.42 0 1 1 1.42-1.42 1.42 1.42 0 0 1-1.42 1.42zm0-45.5a1.42 1.42 0 1 1 1.42-1.42 1.42 1.42 0 0 1-1.42 1.42zm13.3 112.9a1.42 1.42 0 1 1 1.42-1.42 1.42 1.42 0 0 1-1.42 1.42zm.02-134.68a1.42 1.42 0 1 1 1.42-1.42 1.42 1.42 0 0 1-1.42 1.42zm58.98 134.68a1.42 1.42 0 1 1 1.42-1.42 1.42 1.42 0 0 1-1.42 1.42zm0-134.68a1.42 1.42 0 1 1 1.42-1.42 1.42 1.42 0 0 1-1.42 1.42zm13.3 112.78a1.42 1.42 0 1 1 1.42-1.42 1.42 1.42 0 0 1-1.42 1.42zm0-45.5a1.42 1.42 0 1 1 1.42-1.42 1.42 1.42 0 0 1-1.42 1.42zm0-45.5a1.42 1.42 0 1 1 1.42-1.42 1.42 1.42 0 0 1-1.42 1.42zm-75.11 126.89h-10.92a.175.175 0 0 1-.17-.17v-3.88a.175.175 0 0 1 .17-.17h10.92a.175.175 0 0 1 .17.17v3.88a.169.169 0 0 1-.17.17zm76.548 0h-10.918a.175.175 0 0 1-.17-.17v-3.88a.175.175 0 0 1 .17-.17h10.92a.175.175 0 0 1 .17.17v3.88a.183.183 0 0 1-.17.17zM185.932 55.448a1.404 1.404 0 0 1-1.4-1.4v-.66a1.404 1.404 0 0 1 1.4-1.4 1.404 1.404 0 0 1 1.4 1.4v.66a1.398 1.398 0 0 1-1.4 1.4zm1.6-11.06h-4.45a.85.85 0 0 0-.85.85v3.1a.85.85 0 0 0 .85.85h.6a.85.85 0 0 1 .85.85.85.85 0 0 1-.85.85h-.6a.85.85 0 0 0-.85.85v8.2a.85.85 0 0 0 .85.85h.6a.85.85 0 0 1 .85.85v.05a.85.85 0 0 1-.85.85h-.6a.85.85 0 0 0-.85.85v2.75a.85.85 0 0 0 .85.85h.6a.85.85 0 0 0 .85-.85v-1.7a.85.85 0 0 1 .85-.85h2.15"/>
  <path d="M295.832 41.098v97.18a.71.71 0 1 1-1.42 0v-96.47H190.34a.71.71 0 0 1 0-1.42h104.78a.713.713 0 0 1 .71.71zM188.24 195.488a.713.713 0 0 1-.71-.71V43.098a.713.713 0 0 1 .71-.71.713.713 0 0 1 .71.71v151.68a.713.713 0 0 1-.71.71zm107.592-43.59v45.08a.713.713 0 0 1-.71.71h-104.88a.71.71 0 0 1 0-1.42h104.17v-43.66h-.58v-1.42h1.29a.713.713 0 0 1 .71.71zM200.78 19.688a2.347 2.347 0 0 0-2.35 2.35v18.35h4.7v-18.35a2.347 2.347 0 0 0-2.35-2.35zm82.202 0a2.347 2.347 0 0 0-2.35 2.35v18.35h4.7v-18.35a2.347 2.347 0 0 0-2.35-2.35zM13.15 40.408v-9.29a11.557 11.557 0 0 1 11.542-11.54h49.12a11.557 11.557 0 0 1 11.54 11.54v9.29h-4.5v-9.29a7.037 7.037 0 0 0-7.04-7.04H24.69a7.037 7.037 0 0 0-7.04 7.04v9.29zm10.682 161.38h-10.92a.175.175 0 0 1-.17-.17v-3.88a.175.175 0 0 1 .17-.17h10.92a.175.175 0 0 1 .17.17v3.88a.183.183 0 0 1-.17.17zm61.908 0H74.823a.175.175 0 0 1-.17-.17v-3.88a.175.175 0 0 1 .17-.17h10.92a.175.175 0 0 1 .17.17v3.88a.169.169 0 0 1-.17.17zm-26.82-114.6a3.64 3.64 0 1 0 3.64 3.64 3.643 3.643 0 0 0-3.64-3.64zm0 0a3.64 3.64 0 1 0 3.64 3.64 3.643 3.643 0 0 0-3.64-3.64zm30.01-45.33h-79a5.63 5.63 0 0 0-5.628 5.63v85.58a5.63 5.63 0 0 0 5.63 5.63h79a5.63 5.63 0 0 0 5.63-5.63v-85.58a5.63 5.63 0 0 0-5.63-5.63zm-39.39 56.49a3.042 3.042 0 0 1-3.668.47c-1.84-1.05-3.67-2.12-5.5-3.17l-.89-.52a.327.327 0 0 0-.44.12c-.9 1.56-1.8 3.13-2.72 4.71a.32.32 0 0 1-.43.12c-1.68-.97-3.34-1.93-5.03-2.91a.313.313 0 0 1-.12-.43c1.16-2.02 2.32-4.02 3.48-6.03a.315.315 0 0 1 .43-.12l1.31.76a.334.334 0 0 0 .44-.12l1.2-2.08a.313.313 0 0 0-.12-.43c-.43-.26-.86-.51-1.3-.76a.318.318 0 0 1-.12-.44c1.16-2.01 2.31-4.01 3.48-6.02a.307.307 0 0 1 .43-.12l5.04 2.9a.324.324 0 0 1 .11.44l-2.72 4.71a.324.324 0 0 0 .12.43c.19.12.39.23.59.35 1.93 1.11 3.87 2.21 5.79 3.34a3.027 3.027 0 0 1 .64 4.8zm19.172-7.27q-2.356 4.065-4.7 8.15a.37.37 0 0 1-.37.2h-9.42a.39.39 0 0 1-.39-.21q-2.355-4.11-4.73-8.2a.33.33 0 0 1 .01-.39q2.355-4.08 4.7-8.15a.417.417 0 0 1 .42-.25q4.695.015 9.37 0a.43.43 0 0 1 .43.24c1.55 2.7 3.11 5.41 4.67 8.1a.435.435 0 0 1 .01.51zm15.57 38.21a1.18 1.18 0 1 1-2.36 0v-3.72a1.18 1.18 0 0 1 2.36 0zm-1.18-9.12a1.18 1.18 0 1 1 1.18-1.18 1.182 1.182 0 0 1-1.18 1.18zm-24.18-32.98a3.64 3.64 0 1 0 3.64 3.64 3.643 3.643 0 0 0-3.64-3.64zm0 0a3.64 3.64 0 1 0 3.64 3.64 3.643 3.643 0 0 0-3.64-3.64zm0 0a3.64 3.64 0 1 0 3.64 3.64 3.643 3.643 0 0 0-3.64-3.64zm37.288-45.6v15.61a.73.73 0 1 1-1.46 0v-15.61l-90.67.03.03 15.59a.73.73 0 1 1-1.46 0v-15.62a1.43 1.43 0 0 1 1.43-1.43h90.7a1.43 1.43 0 0 1 1.43 1.43zm-.278 138.9v15.61a1.43 1.43 0 0 1-1.43 1.43H4.152a1.43 1.43 0 0 1-1.43-1.43v-15.61a.73.73 0 0 1 1.46 0v15.61l90.32-.03-.03-15.59a.734.734 0 0 1 .73-.73.743.743 0 0 1 .73.74zm2.7-107.94v-3.13h-.71v-26.18a.73.73 0 0 0-1.46 0v95.58a1.265 1.265 0 0 0-.55-.12H3.092a1.348 1.348 0 0 0-.69.19v-95.65a.73.73 0 1 0-1.46 0v18.48h-.62v3.13h.62v85.52h-.62v3.13h.62v41.45a.73.73 0 1 0 1.46 0v-44.62a1.348 1.348 0 0 0 .69.19h1.2v39.96a5.63 5.63 0 0 0 5.63 5.63h78.95a5.63 5.63 0 0 0 5.63-5.63v-39.96h1.41a1.265 1.265 0 0 0 .55-.12v44.55a.73.73 0 0 0 1.46 0v-82.42h.71v-3.13h-.71v-36.85zm-88.71 75.85a.77.77 0 1 1 .77-.77.758.758 0 0 1-.77.77zm0-2.81a.77.77 0 1 1 .77-.77.77.77 0 0 1-.77.77zm0-2.82a.77.77 0 1 1 .77-.77.758.758 0 0 1-.77.77zm2.82 5.63a.77.77 0 1 1 .77-.77.77.77 0 0 1-.77.77zm0-2.81a.77.77 0 1 1 .77-.77.77.77 0 0 1-.77.77zm0-2.82a.77.77 0 1 1 .77-.77.77.77 0 0 1-.77.77zm2.81 5.63a.77.77 0 1 1 .77-.77.758.758 0 0 1-.77.77zm0-2.81a.77.77 0 1 1 .77-.77.77.77 0 0 1-.77.77zm0-2.82a.77.77 0 1 1 .77-.77.758.758 0 0 1-.77.77zm2.82 5.63a.77.77 0 1 1 .77-.77.77.77 0 0 1-.77.77zm0-2.81a.77.77 0 1 1 .77-.77.77.77 0 0 1-.77.77zm0-2.82a.77.77 0 1 1 .77-.77.77.77 0 0 1-.77.77zm2.81 5.63a.77.77 0 1 1 .77-.77.77.77 0 0 1-.77.77zm0-2.81a.77.77 0 1 1 .77-.77.77.77 0 0 1-.77.77zm0-2.82a.77.77 0 1 1 .77-.77.77.77 0 0 1-.77.77zm2.81 5.63a.77.77 0 1 1 .77-.77.758.758 0 0 1-.77.77zm0-2.81a.77.77 0 1 1 .77-.77.77.77 0 0 1-.77.77zm0-2.82a.77.77 0 1 1 .77-.77.758.758 0 0 1-.77.77zm2.82 5.63a.77.77 0 1 1 .77-.77.77.77 0 0 1-.77.77zm0-2.81a.77.77 0 1 1 .77-.77.77.77 0 0 1-.77.77zm0-2.82a.77.77 0 1 1 .77-.77.77.77 0 0 1-.77.77zm2.81 5.63a.77.77 0 1 1 .77-.77.758.758 0 0 1-.77.77zm0-2.81a.77.77 0 1 1 .77-.77.77.77 0 0 1-.77.77zm0-2.82a.77.77 0 1 1 .77-.77.758.758 0 0 1-.77.77zm2.82 5.63a.77.77 0 1 1 .77-.77.77.77 0 0 1-.77.77zm0-2.81a.77.77 0 1 1 .77-.77.77.77 0 0 1-.77.77zm0-2.82a.77.77 0 1 1 .77-.77.77.77 0 0 1-.77.77zm2.81 5.63a.77.77 0 1 1 .77-.77.758.758 0 0 1-.77.77zm0-2.81a.77.77 0 1 1 .77-.77.77.77 0 0 1-.77.77zm0-2.82a.77.77 0 1 1 .77-.77.758.758 0 0 1-.77.77zm2.82 5.63a.77.77 0 1 1 .77-.77.77.77 0 0 1-.77.77zm0-2.81a.77.77 0 1 1 .77-.77.77.77 0 0 1-.77.77zm0-2.82a.77.77 0 1 1 .77-.77.77.77 0 0 1-.77.77zm2.81 5.63a.77.77 0 1 1 .77-.77.758.758 0 0 1-.77.77zm0-2.81a.77.77 0 1 1 .77-.77.77.77 0 0 1-.77.77zm0-2.82a.77.77 0 1 1 .77-.77.758.758 0 0 1-.77.77zm2.82 5.63a.77.77 0 1 1 .77-.77.77.77 0 0 1-.77.77zm0-2.81a.77.77 0 1 1 .77-.77.77.77 0 0 1-.77.77zm0-2.82a.77.77 0 1 1 .77-.77.77.77 0 0 1-.77.77zm2.81 5.63a.77.77 0 1 1 .77-.77.77.77 0 0 1-.77.77zm0-2.81a.77.77 0 1 1 .77-.77.77.77 0 0 1-.77.77zm0-2.82a.77.77 0 1 1 .77-.77.77.77 0 0 1-.77.77zm2.82 5.63a.77.77 0 1 1 .77-.77.77.77 0 0 1-.77.77zm0-2.81a.77.77 0 1 1 .77-.77.77.77 0 0 1-.77.77zm0-2.82a.77.77 0 1 1 .77-.77.77.77 0 0 1-.77.77zm2.81 5.63a.77.77 0 1 1 .77-.77.77.77 0 0 1-.77.77zm0-2.81a.77.77 0 1 1 .77-.77.77.77 0 0 1-.77.77zm0-2.82a.77.77 0 1 1 .77-.77.77.77 0 0 1-.77.77zm2.81 5.63a.77.77 0 1 1 .77-.77.758.758 0 0 1-.77.77zm0-2.81a.77.77 0 1 1 .77-.77.77.77 0 0 1-.77.77zm0-2.82a.77.77 0 1 1 .77-.77.758.758 0 0 1-.77.77zm2.82 5.63a.77.77 0 1 1 .77-.77.77.77 0 0 1-.77.77zm0-2.81a.77.77 0 1 1 .77-.77.77.77 0 0 1-.77.77zm0-2.82a.77.77 0 1 1 .77-.77.77.77 0 0 1-.77.77zm19.19 3.83a2.855 2.855 0 0 1-1.99.82h-11.17a2.813 2.813 0 0 1-2.81-2.81 2.817 2.817 0 0 1 2.81-2.82h11.17a2.815 2.815 0 0 1 2.81 2.82 2.855 2.855 0 0 1-.82 1.99zm6.14.83a2.81 2.81 0 1 1 2.81-2.81 2.813 2.813 0 0 1-2.81 2.81zm0-1.62a1.2 1.2 0 1 1 1.2-1.2 1.204 1.204 0 0 1-1.2 1.2zm0-2.11a.91.91 0 1 0 .91.91.913.913 0 0 0-.91-.91zm-15.41.44a.73.73 0 0 1-.12.41.64.64 0 0 1-.34.26.85.85 0 0 1-.25.05c-.1.01-.21.02-.32.02h-.37v1.04h-.44v-2.55h.86a2.132 2.132 0 0 1 .37.03.835.835 0 0 1 .29.11.622.622 0 0 1 .24.27.863.863 0 0 1 .08.36zm-.45-.03a.406.406 0 0 0-.05-.21.374.374 0 0 0-.12-.13.478.478 0 0 0-.18-.06 1.498 1.498 0 0 0-.22-.02h-.39v.86h.32a1.64 1.64 0 0 0 .23-.02.587.587 0 0 0 .2-.06.316.316 0 0 0 .14-.14.278.278 0 0 0 .07-.22zm2.76 1.44a.756.756 0 0 1-.23.24.978.978 0 0 1-.31.14 1.393 1.393 0 0 1-.35.04 1.09 1.09 0 0 1-.88-.37 1.323 1.323 0 0 1-.21-.41 1.722 1.722 0 0 1-.07-.52 1.7 1.7 0 0 1 .07-.51 1.563 1.563 0 0 1 .21-.43.944.944 0 0 1 .36-.29 1.16 1.16 0 0 1 .51-.11 1.86 1.86 0 0 1 .34.04.815.815 0 0 1 .52.36.616.616 0 0 1 .09.34h-.45a.41.41 0 0 0-.16-.31.548.548 0 0 0-.34-.1.56.56 0 0 0-.33.09.61.61 0 0 0-.21.24 1.516 1.516 0 0 0-.12.32 2.04 2.04 0 0 0-.03.34 1.317 1.317 0 0 0 .04.34.836.836 0 0 0 .12.31.804.804 0 0 0 .22.23.593.593 0 0 0 .34.09.628.628 0 0 0 .19-.03.886.886 0 0 0 .17-.08.407.407 0 0 0 .12-.14.423.423 0 0 0 .05-.2h.46a1.134 1.134 0 0 1-.12.38zm.47-.71v-.28h.93v.28zm1.768 1.09v-2.14a1.35 1.35 0 0 1-.27.2 2.1 2.1 0 0 1-.3.15v-.35a1.276 1.276 0 0 0 .33-.17 1.93 1.93 0 0 0 .29-.24h.36v2.55z"/>
  <path d="M237.264 5.807V.663a5.69 5.69 0 0 1-1.24.82v-.49a4.08 4.08 0 0 0 1.27-.89h.458v5.703zm4.306.126a1.506 1.506 0 0 1-1.658-1.507h.56a.983.983 0 0 0 1.09 1.042c1.31 0 1.372-1.61 1.42-2.785a1.53 1.53 0 0 1-1.445.93 1.663 1.663 0 0 1-1.672-1.8 1.71 1.71 0 0 1 1.783-1.796c1.342.015 1.8 1.135 1.8 2.65-.002 1.278-.19 3.266-1.88 3.266zm.078-5.49a1.266 1.266 0 0 0-1.262 1.372 1.203 1.203 0 0 0 1.183 1.357 1.263 1.263 0 0 0 1.293-1.38 1.236 1.236 0 0 0-1.215-1.35zm4.439 5.443c-1.57 0-1.798-1.784-1.798-3.045 0-1.16.354-2.84 1.837-2.84 1.49 0 1.783 1.65 1.783 2.872 0 1.238-.31 3.014-1.823 3.014zm.04-5.467c-1.168 0-1.31 1.624-1.31 2.523 0 .836.142 2.533 1.254 2.533 1.153 0 1.31-1.625 1.31-2.517 0-.86-.125-2.54-1.253-2.54z" style="isolation:isolate" fill="#191924"/>
  <path fill="none" stroke="#191924" stroke-miterlimit="10" stroke-width=".283" d="m187.532 7.868 2.9-1.4v2.8l-2.9-1.4m108.3 0-2.8 1.4v-2.8l2.8 1.4"/>
  <path fill="none" stroke="#191924" stroke-linecap="round" stroke-linejoin="round" stroke-width=".283" d="M295.832 7.868h-108.3m-.002 31.62V5.068m108.302 33.42V5.068"/>
  <path fill="#191924" d="m187.532 7.868 2.9-1.4v2.8m105.4-1.4-2.8 1.4v-2.8"/>
  <path d="M115.256 120.602v-.545a14.747 14.747 0 0 0 2.65-3.014 1.575 1.575 0 0 0 .182-.733 1.017 1.017 0 0 0-1.088-1.08 1.087 1.087 0 0 0-1.144 1.182h-.537a1.563 1.563 0 0 1 1.687-1.617 1.437 1.437 0 0 1 1.618 1.467 3.525 3.525 0 0 1-1.08 2.1c-.52.623-1.16 1.222-1.737 1.79h2.887v.45zm6.207.086a1.637 1.637 0 0 1-1.854-1.594 1.43 1.43 0 0 1 1.182-1.46 1.274 1.274 0 0 1-1.104-1.276 1.625 1.625 0 0 1 1.8-1.563 1.586 1.586 0 0 1 1.758 1.498 1.315 1.315 0 0 1-1.097 1.334 1.382 1.382 0 0 1 1.174 1.39 1.704 1.704 0 0 1-1.86 1.67zm-.016-2.84a1.2 1.2 0 0 0-1.31 1.207 1.183 1.183 0 0 0 1.302 1.2 1.236 1.236 0 0 0 1.348-1.208 1.206 1.206 0 0 0-1.34-1.2zm.04-2.62a1.144 1.144 0 0 0-1.286 1.122c0 .773.624 1.08 1.28 1.08a1.157 1.157 0 0 0 1.26-1.112 1.11 1.11 0 0 0-1.254-1.09zm4.376 5.46a1.507 1.507 0 0 1-1.696-1.483h.568a1.05 1.05 0 0 0 1.136 1.05c.853 0 1.28-.687 1.28-1.515 0-.773-.388-1.42-1.192-1.42a1.135 1.135 0 0 0-1.16.89h-.52l.126-3.33h3.006v.46h-2.517l-.095 2.12a1.352 1.352 0 0 1 1.184-.583 1.69 1.69 0 0 1 1.703 1.88 1.795 1.795 0 0 1-1.822 1.93zM142.02 100.416a1.61 1.61 0 0 1-1.775-1.594h.53a1.203 1.203 0 0 0 1.285 1.168 1.227 1.227 0 0 0 1.317-1.222 1.202 1.202 0 0 0-1.31-1.2 2.03 2.03 0 0 0-.307.024v-.466a2.134 2.134 0 0 0 .315.024 1.092 1.092 0 0 0 1.19-1.09 1.22 1.22 0 0 0-2.43.002h-.52a1.593 1.593 0 0 1 1.72-1.54 1.55 1.55 0 0 1 1.752 1.516 1.344 1.344 0 0 1-1.05 1.31 1.423 1.423 0 0 1 1.19 1.45 1.716 1.716 0 0 1-1.907 1.618zm2.75-.086v-.545a14.782 14.782 0 0 0 2.653-3.013 1.58 1.58 0 0 0 .18-.734 1.016 1.016 0 0 0-1.087-1.08 1.088 1.088 0 0 0-1.145 1.183h-.535a1.563 1.563 0 0 1 1.688-1.618 1.438 1.438 0 0 1 1.618 1.468 3.522 3.522 0 0 1-1.08 2.1c-.52.622-1.16 1.22-1.736 1.79h2.887v.45zm4.42 0v-.545a14.782 14.782 0 0 0 2.65-3.013 1.58 1.58 0 0 0 .18-.734 1.016 1.016 0 0 0-1.087-1.08 1.088 1.088 0 0 0-1.145 1.183h-.536a1.563 1.563 0 0 1 1.69-1.618 1.438 1.438 0 0 1 1.616 1.468 3.522 3.522 0 0 1-1.08 2.1c-.52.622-1.16 1.22-1.737 1.79h2.888v.45zM44.615 5.972V.828a5.678 5.678 0 0 1-1.238.82v-.49a4.064 4.064 0 0 0 1.27-.89h.458V5.97zm3.959 0h-.59L50.245.718h-3.02v-.45h3.48v.505zm4.866.078c-1.57 0-1.8-1.783-1.8-3.044 0-1.16.356-2.84 1.84-2.84 1.49 0 1.782 1.648 1.782 2.87 0 1.24-.308 3.015-1.822 3.015zm.04-5.466c-1.168 0-1.31 1.625-1.31 2.524 0 .836.142 2.533 1.254 2.533 1.15 0 1.31-1.624 1.31-2.516 0-.86-.126-2.54-1.255-2.54z" style="isolation:isolate" fill="#191924"/>
  <path fill="none" stroke="#191924" stroke-miterlimit="10" stroke-width=".283" d="m98.44 8.068-2.798 1.4v-2.9l2.8 1.5m-98.302 0 2.8-1.5v2.9l-2.8-1.4m146.432 193.72-1.5-2.8h2.9l-1.4 2.8m0-182.2 1.4 2.8h-2.9l1.5-2.8m-25.102 182.2-1.5-2.8h2.902l-1.4 2.8m-.002-161.5 1.402 2.8h-2.9l1.5-2.8"/>
  <path fill="none" stroke="#191924" stroke-linecap="round" stroke-linejoin="round" stroke-width=".283" d="M.14 8.068h98.302m0 30.32V5.168M.14 38.388V5.168m146.43 196.62v-99.4m0-82.8v73.4m-57.73 108.8h60.53m-72.33-182.2h72.33m-27.898 182.2v-79.1m0-82.4v73m-21.832-73h24.632"/>
  <path fill="#191924" d="m98.44 8.068-2.798 1.4v-2.9M.14 8.068l2.8-1.5v2.9m143.632 192.32-1.5-2.8h2.9m-1.4-179.4 1.4 2.8h-2.9m-23.602 179.4-1.5-2.8h2.902m-1.402-158.7 1.402 2.8h-2.9"/>
  <path fill="none" d="M187.53 44.388v19.2"/>
  <path d="m299.952 130.338-5.22-1.9.66-1.81 5.22 1.9a.948.948 0 0 1 .57 1.23.96.96 0 0 1-1.23.58z"/>
</svg>
