<svg xmlns="http://www.w3.org/2000/svg" viewBox="0 0 204.74 229.48">
  <path fill="#F29D0A" d="m114.22 163.47 31.26 34.58 32.59-34.92H164.1V126.7c0-2.1-1.71-3.81-3.81-3.81h-28.3c-2.1 0-3.81 1.71-3.81 3.81v36.76h-13.96v.01z"/>
  <path d="M50.13 71.03V60.36c0-6.44 5.24-11.68 11.68-11.68h41.22v26.37c0 12.94 10.53 23.46 23.46 23.46h26.42v20.07H160V89.54l-46.61-47.95H61.81c-10.35 0-18.76 8.42-18.76 18.77v10.67h7.08zm59.98-22.35h.28l41.55 42.75h-25.45c-9.03 0-16.38-7.35-16.38-16.38V48.68zm10.67 129.77H61.81c-6.44 0-11.68-5.24-11.68-11.68V123.9h-7.09v42.88c0 10.35 8.42 18.76 18.76 18.76h65.35l-6.37-7.09z" fill="#27292B"/>
  <path fill="#F29D0A" d="M92.58 119.24H32.76c-2.77 0-5.01-2.24-5.01-5.01V80.69c0-2.77 2.24-5.01 5.01-5.01h59.82c2.77 0 5.01 2.24 5.01 5.01v33.55c0 2.76-2.24 5-5.01 5zm-52.73-8.69v-9.6h5.25c2.65-.05 4.7-.92 6.08-2.58 1.34-1.57 2.03-3.34 2.03-5.25 0-1.41-.27-2.66-.8-3.69-.51-1.08-1.2-1.94-2.01-2.51-.96-.76-1.94-1.28-2.91-1.54-.92-.18-1.9-.28-2.88-.28h-9.33v25.45h4.57zm0-13.97v-7.1h5.09c.87 0 1.65.21 2.32.64.44.26.78.59 1.01 1.01.24.5.36 1.14.36 1.89 0 .9-.29 1.69-.9 2.43-.62.74-1.54 1.11-2.79 1.13h-5.09zm24.1 13.97c1.92 0 3.57-.43 4.89-1.27 1.34-.79 2.4-1.8 3.15-3.01.28-.45.52-.89.72-1.32.19-.44.34-.95.43-1.51.2-1.08.29-2.92.29-5.61 0-2.53-.06-4.26-.19-5.31-.17-1.07-.57-2.1-1.19-3.06-1.74-2.87-4.38-4.33-7.85-4.35h-9.03v25.45h8.78v-.01zm-4.19-4.37v-16.7h4.2c1.68 0 2.94.62 3.9 1.93.45.51.74 1.19.86 2.01.1.9.15 2.43.15 4.54 0 2.17-.05 3.66-.15 4.43-.1.73-.34 1.34-.73 1.83-.87 1.31-2.24 1.95-4.2 1.95h-4.03v.01zm20.61 4.37v-10.51H90.6v-4.16H80.37v-6.4h11.98V85.1H75.8v25.45h4.57z"/>
</svg>
