<svg xmlns="http://www.w3.org/2000/svg" xmlns:xlink="http://www.w3.org/1999/xlink" viewBox="0 0 908 438"><style type="text/css">.st0{fill:none;} .st1{clip-path:url(#SVGID_2_);} .st2{fill:none;stroke:#BE1E2D;stroke-width:5.6693;stroke-miterlimit:10;} .st3{fill:url(#New_Pattern_6);}</style><pattern x="305" y="60" width="62.01" height="49.61" patternUnits="userSpaceOnUse" id="New_Pattern_6" viewBox="20.06 -91.01 62.01 49.61" overflow="visible"><path class="st0" d="M20.06-91.01h62.01v49.61H20.06z"/><defs><path id="SVGID_1_" d="M20.06-91.01h62.01v49.61H20.06z"/></defs><clipPath id="SVGID_2_"><use xlink:href="#SVGID_1_" overflow="visible"/></clipPath><g class="st1"><path class="st2" d="M89.93-119.36L14.74-74.31M89.93-106.96L1.46-53.93M94.62-97.4L14.74-49.51M89.93-82.15L19.06-39.64M89.93-69.75L19.06-27.23M89.93-57.35L19.06-14.83M90.19-45.14L19.06-2.43M89.93-131.89L10.47-84.11"/></g></pattern><path class="st3" d="M6.31 189.53s216.98 3.54 240.01-1.77c13.21-3.05 38.07-10.17 56.87-15.7 16.11-4.73 22.22-5.68 37.01-13.62l75.12-45.11c2.45-1.31 67.94-41.67 70.17-43.33l54.87-28.81c3.45-2.59 7.74-3.78 12.03-3.36l11.05 1.1 10.67-6.4c4.59-2.75 9.91-4.04 15.25-3.68l15.2 1.01c2.1.14 4.16.64 6.09 1.47l62.64 32.4c1.26.55 2.55 1.04 3.85 1.49l153.83 53.43 67.32 23.03c-4.03 21.16-23.36 35.88-44.84 34.14l-25.26-5.48c-.99-.21-1.42 1.19-.48 1.57l33.18 13.59c10.63 7.09 8.75 8.44 1.77 19.49l-6.4 5.31c-7.77 7.09-30.61 5.79-50.1 2.24l-81.5-24.8-40.75-8.86-15.64-5.58c-1.17-.42-1.94 1.2-.89 1.85l24.72 15.3c2.78 1.72 5.23 3.93 7.23 6.52l44.81 58.09 58.3 18.3c15.19 4.01 25.25 18.42 23.79 34.07-1.57 16.7-15.71 29.38-32.48 29.13l-77.95-1.77-23.03-5.31 14.34 13.44-2.6 2.98c-5.98 6.83-15.37 9.57-24.08 7.03l-19.54-9.27L629 322.4l-85.04 15.94-95.67 8.86-32.58-3.49c-11.23-1.2-22.58-.09-33.36 3.28-7.96 2.49-16.25 3.75-24.58 3.75h-37.03l-124.02 19.49-190.41 5.32V189.53zm606.75 24.8l8.86 19.49s26.57 14.17 47.83 15.94l-8.86-8.86s-23.03-7.09-31.89-17.72c-8.86-10.62-15.94-8.85-15.94-8.85z"/></svg>