<svg xmlns="http://www.w3.org/2000/svg" xmlns:xlink="http://www.w3.org/1999/xlink" viewBox="0 0 198.43 198.43"><defs><path id="2a957be2dbc09eeb_a" d="M4 4.26h190.17v190.17H4z"/></defs><clipPath id="2a957be2dbc09eeb_b"><use xlink:href="#2a957be2dbc09eeb_a" overflow="visible"/></clipPath><path clip-path="url(#2a957be2dbc09eeb_b)" fill="#121114" d="M194.046 99.344c0-52.445-42.515-94.96-94.96-94.96-52.446 0-94.96 42.515-94.96 94.96s42.514 94.96 94.96 94.96c52.445 0 94.96-42.515 94.96-94.96"/><circle clip-path="url(#2a957be2dbc09eeb_b)" fill="none" stroke="#000" stroke-width=".25" stroke-miterlimit="10" cx="99.086" cy="99.344" r="94.961"/><path clip-path="url(#2a957be2dbc09eeb_b)" fill="#FFF" d="M14.94 102.25c-1.624 0-2.436-1.223-2.436-2.744 0-1.5.853-2.66 2.435-2.66 1.602 0 2.423 1.14 2.423 2.66 0 1.458-.862 2.743-2.424 2.743m0-4.89c-1.244 0-1.768 1.026-1.768 2.146 0 1.1.513 2.26 1.767 2.26 1.232 0 1.755-1.192 1.755-2.26 0-1.11-.513-2.147-1.756-2.147M20.643 97.523c-1.11 0-1.458.647-1.458 1.674v2.938h-.628v-3.667c0-.503-.02-1.017-.03-1.52h.616l.042.81c.38-.594.893-.84 1.592-.84.092 0 .194.01.288.02v.626c-.145-.03-.278-.04-.422-.04M23.727 102.176c-.75 0-1.1-.36-1.1-1.11V97.41H21.6v-.462h1.028v-1.07l.626-.276v1.346h1.16v.46h-1.16v3.38c0 .587.083.864.73.864.122 0 .308-.03.472-.06v.533c-.246.03-.483.05-.73.05"/><path clip-path="url(#2a957be2dbc09eeb_b)" fill="#FFF" d="M29.163 102.135v-2.928c0-.965-.113-1.787-1.305-1.787-1.17 0-1.582.925-1.582 1.952v2.763h-.627V94.71h.626v3.1c.41-.616.945-.914 1.685-.914 1.418 0 1.83.76 1.83 2.065v3.175h-.627zM33.388 102.25c-1.623 0-2.435-1.223-2.435-2.744 0-1.5.853-2.66 2.435-2.66 1.603 0 2.424 1.14 2.424 2.66 0 1.458-.862 2.743-2.424 2.743m0-4.89c-1.243 0-1.767 1.026-1.767 2.146 0 1.1.514 2.26 1.768 2.26 1.232 0 1.756-1.192 1.756-2.26 0-1.11-.513-2.147-1.756-2.147M41.542 97.487c-1.11 0-1.458.647-1.458 1.674v2.94h-.628V98.43c0-.503-.02-1.017-.03-1.52h.616l.042.81c.38-.594.893-.84 1.592-.84.092 0 .194.01.288.02v.626c-.145-.03-.278-.04-.422-.04"/><path clip-path="url(#2a957be2dbc09eeb_b)" fill="#FFF" d="M43.25 99.603v.124c0 1.047.584 2.023 1.725 2.023.822 0 1.336-.514 1.47-1.295h.595c-.216 1.162-.976 1.758-2.147 1.758-1.582 0-2.28-1.162-2.28-2.62 0-1.49.73-2.763 2.362-2.763 1.654 0 2.095 1.386 2.095 2.773h-3.82zm3.184-.565c0-.914-.514-1.725-1.5-1.725-1.047 0-1.582.883-1.665 1.827h3.164v-.102zM55.066 102.1v-3.133c0-.895-.268-1.583-1.295-1.583-1.17 0-1.478.812-1.478 1.828v2.887h-.627v-3.062c0-.915-.205-1.654-1.283-1.654-1.058 0-1.49.894-1.49 1.828v2.887h-.627v-3.945c0-.41-.03-.833-.03-1.243h.616l.042.903c.35-.636.874-.955 1.602-.955.853 0 1.346.31 1.664 1.11.36-.77.936-1.11 1.778-1.11 1.52 0 1.756.996 1.756 2.27v2.97h-.626zM59.292 102.213c-1.623 0-2.435-1.223-2.435-2.743 0-1.5.853-2.66 2.435-2.66 1.603 0 2.424 1.14 2.424 2.66 0 1.458-.863 2.743-2.424 2.743m0-4.89c-1.243 0-1.766 1.027-1.766 2.147 0 1.1.512 2.26 1.766 2.26 1.233 0 1.756-1.192 1.756-2.26 0-1.11-.513-2.147-1.756-2.147M64.328 102.14c-.75 0-1.1-.36-1.1-1.11v-3.657h-1.027v-.46h1.03v-1.07l.625-.277v1.346h1.16v.46h-1.16v3.38c0 .587.083.864.73.864.122 0 .308-.03.472-.06v.533c-.246.03-.483.05-.73.05"/><path clip-path="url(#2a957be2dbc09eeb_b)" fill="#FFF" d="M66.497 99.603v.124c0 1.047.585 2.023 1.726 2.023.822 0 1.336-.514 1.47-1.295h.595c-.216 1.162-.976 1.758-2.147 1.758-1.58 0-2.28-1.162-2.28-2.62 0-1.49.73-2.763 2.363-2.763 1.654 0 2.095 1.386 2.095 2.773h-3.82zm3.185-.565c0-.914-.514-1.725-1.5-1.725-1.047 0-1.582.883-1.665 1.827h3.165v-.102z"/></svg>